<mxfile host="65bd71144e">
    <diagram id="uKCuEKAUuEGNg_Q5OyuN" name="Page-1">
        <mxGraphModel dx="498" dy="353" grid="1" gridSize="10" guides="1" tooltips="1" connect="1" arrows="1" fold="1" page="0" pageScale="1" pageWidth="827" pageHeight="1169" math="0" shadow="0">
            <root>
                <mxCell id="0"/>
                <mxCell id="1" parent="0"/>
                <mxCell id="3" value="Weather App" style="swimlane;startSize=20;horizontal=1;childLayout=treeLayout;horizontalTree=0;resizable=0;containerType=tree;" vertex="1" parent="1">
                    <mxGeometry x="370" y="200" width="406" height="305" as="geometry"/>
                </mxCell>
                <mxCell id="4" value="App" style="whiteSpace=wrap;html=1;" vertex="1" parent="3">
                    <mxGeometry x="118" y="40" width="100" height="40" as="geometry"/>
                </mxCell>
                <mxCell id="5" value="Search Bar" style="whiteSpace=wrap;html=1;" vertex="1" parent="3">
                    <mxGeometry x="216" y="130" width="100" height="40" as="geometry"/>
                </mxCell>
                <mxCell id="6" value="" style="edgeStyle=elbowEdgeStyle;elbow=vertical;html=1;rounded=0;" edge="1" parent="3" source="4" target="5">
                    <mxGeometry relative="1" as="geometry"/>
                </mxCell>
                <mxCell id="7" value="Results Display" style="whiteSpace=wrap;html=1;" vertex="1" parent="3">
                    <mxGeometry x="20" y="130" width="100" height="40" as="geometry"/>
                </mxCell>
                <mxCell id="8" value="" style="edgeStyle=elbowEdgeStyle;elbow=vertical;html=1;rounded=0;" edge="1" parent="3" source="4" target="7">
                    <mxGeometry relative="1" as="geometry"/>
                </mxCell>
                <mxCell id="11" value="" style="edgeStyle=elbowEdgeStyle;elbow=vertical;html=1;rounded=0;" edge="1" target="12" source="5" parent="3">
                    <mxGeometry relative="1" as="geometry">
                        <mxPoint x="370" y="280" as="sourcePoint"/>
                    </mxGeometry>
                </mxCell>
                <mxCell id="12" value="Input Box&lt;br&gt;&lt;font style=&quot;font-size: 7px&quot;&gt;onChange set searchText&lt;/font&gt;" style="whiteSpace=wrap;html=1;" vertex="1" parent="3">
                    <mxGeometry x="286" y="220" width="100" height="40" as="geometry"/>
                </mxCell>
                <mxCell id="13" value="" style="edgeStyle=elbowEdgeStyle;elbow=vertical;html=1;rounded=0;" edge="1" target="14" source="5" parent="3">
                    <mxGeometry relative="1" as="geometry">
                        <mxPoint x="300" y="370" as="sourcePoint"/>
                    </mxGeometry>
                </mxCell>
                <mxCell id="14" value="Submit Button&lt;br&gt;&lt;font style=&quot;font-size: 6px&quot;&gt;Changes first char toUpper&lt;/font&gt;&lt;br&gt;&lt;font style=&quot;font-size: 7px&quot;&gt;onClick set query&lt;br&gt;&lt;br&gt;&lt;/font&gt;" style="whiteSpace=wrap;html=1;" vertex="1" parent="3">
                    <mxGeometry x="146" y="220" width="100" height="50" as="geometry"/>
                </mxCell>
                <mxCell id="47" style="edgeStyle=none;html=1;exitX=0.5;exitY=0;exitDx=0;exitDy=0;entryX=0.5;entryY=1;entryDx=0;entryDy=0;fontSize=7;" edge="1" parent="3" source="43" target="7">
                    <mxGeometry relative="1" as="geometry"/>
                </mxCell>
                <mxCell id="43" value="&lt;span&gt;Sends query to api&amp;nbsp;&lt;/span&gt;" style="rhombus;whiteSpace=wrap;html=1;fontSize=7;" vertex="1" parent="3">
                    <mxGeometry x="30" y="205" width="80" height="80" as="geometry"/>
                </mxCell>
                <mxCell id="54" value="" style="endArrow=classic;html=1;fontSize=7;entryX=1;entryY=0.5;entryDx=0;entryDy=0;exitX=0;exitY=0.5;exitDx=0;exitDy=0;" edge="1" parent="3" source="14" target="43">
                    <mxGeometry width="50" height="50" relative="1" as="geometry">
                        <mxPoint x="170" y="300" as="sourcePoint"/>
                        <mxPoint x="220" y="250" as="targetPoint"/>
                    </mxGeometry>
                </mxCell>
            </root>
        </mxGraphModel>
    </diagram>
</mxfile>